<svg width="23" height="21" viewBox="0 0 23 21" fill="none" xmlns="http://www.w3.org/2000/svg">
<path d="M8.59641 4.90276C8.65679 5.2167 8.97665 5.46428 9.35395 5.39559C9.72031 5.32112 9.92866 4.97911 9.86013 4.6576C9.77965 4.28376 9.4004 4.0755 9.0411 4.17984C8.72016 4.27309 8.53033 4.59577 8.59641 4.90276Z" fill="#D2374A"/>
<path d="M22.4819 13.6679C18.9748 3.72799 19.216 4.40901 19.201 4.37517C18.836 3.55252 18.1273 2.913 17.2567 2.62052C17.132 2.57864 10.0727 0.970848 9.86867 0.902068C9.24299 0.691084 8.37371 0.809358 7.76345 1.35583L1.71376 6.77577C1.03364 7.38483 0.643555 8.25186 0.643555 9.15462V18.7524C0.643555 19.8835 1.58361 20.8037 2.73911 20.8037H15.6819C16.8374 20.8037 17.7774 19.8835 17.7774 18.7524V17.8248L21.3849 16.3215C22.4338 15.8796 22.9217 14.6936 22.4819 13.6679ZM15.6819 19.5486H2.73911C2.29441 19.5486 1.93265 19.1914 1.93265 18.7524V9.15462C1.93265 8.602 2.17096 8.07159 2.58652 7.69945C7.76955 3.05605 4.56589 5.95234 8.65684 2.27909C8.87018 2.08764 9.16474 2.01075 9.45689 2.09651C9.71802 2.17245 9.25725 1.80704 15.8345 7.69953C16.25 8.07163 16.4883 8.602 16.4883 9.15462V18.7524C16.4883 19.1914 16.1265 19.5486 15.6819 19.5486ZM20.8754 15.1686L17.7774 16.4595V9.15462C17.7774 8.25186 17.3873 7.38483 16.7072 6.77586L12.2019 2.73955L16.8643 3.81668C17.3732 3.99604 17.7881 4.37148 18.0084 4.85244C21.5089 14.7734 21.2728 14.1075 21.2881 14.1418C21.4641 14.538 21.2779 14.999 20.8754 15.1686Z" fill="#D2374A"/>
<path d="M11.0405 8.55728C10.7124 8.42315 10.3345 8.57359 10.1968 8.89314L7.05897 16.1745C6.87996 16.5899 7.19618 17.045 7.65303 17.045C7.90488 17.045 8.14414 16.9004 8.24769 16.6601L11.3855 9.37879C11.5232 9.05915 11.3688 8.69136 11.0405 8.55728Z" fill="#D2374A"/>
<path d="M8.01973 10.3656C8.01973 9.15444 7.10864 8.16905 5.98872 8.16905C4.86879 8.16905 3.95775 9.15444 3.95775 10.3656C3.95775 11.5768 4.86884 12.5622 5.98876 12.5622C7.10868 12.5622 8.01973 11.5768 8.01973 10.3656ZM5.98876 11.3071C5.58661 11.3071 5.24684 10.8759 5.24684 10.3656C5.24684 9.85529 5.58656 9.42416 5.98876 9.42416C6.39096 9.42416 6.73068 9.85529 6.73068 10.3656C6.73064 10.8759 6.39092 11.3071 5.98876 11.3071Z" fill="#D2374A"/>
<path d="M12.4925 13.1474C11.3726 13.1474 10.4615 14.1328 10.4615 15.344C10.4615 16.5552 11.3726 17.5406 12.4925 17.5406C13.6125 17.5406 14.5236 16.5552 14.5236 15.344C14.5236 14.1328 13.6124 13.1474 12.4925 13.1474ZM12.4925 16.2855C12.0904 16.2855 11.7506 15.8543 11.7506 15.344C11.7506 14.8337 12.0903 14.4025 12.4925 14.4025C12.8947 14.4025 13.2345 14.8337 13.2345 15.344C13.2345 15.8543 12.8947 16.2855 12.4925 16.2855Z" fill="#D2374A"/>
</svg>
